<svg xmlns="http://www.w3.org/2000/svg" xmlns:xlink="http://www.w3.org/1999/xlink" width="192" zoomAndPan="magnify" viewBox="0 0 144 143.999998" height="192" preserveAspectRatio="xMidYMid meet" version="1.0"><defs><g/><clipPath id="314e6f60c6"><path d="M 36.152344 14 L 108 14 L 108 90.777344 L 36.152344 90.777344 Z M 36.152344 14 " clip-rule="nonzero"/></clipPath></defs><g clip-path="url(#314e6f60c6)"><path fill="#a48023" d="M 75.058594 86.300781 C 75.15625 87.199219 75.214844 88.367188 75.425781 89.503906 C 75.683594 90.882812 76.480469 91.003906 77.40625 90.082031 C 78.28125 89.210938 79.097656 88.269531 79.875 87.304688 C 87.632812 77.644531 92.824219 66.527344 97.664062 55.269531 C 100.347656 49.023438 101.367188 49.984375 94.230469 47.042969 C 83.777344 42.738281 72.820312 42.296875 61.738281 43.808594 C 55.839844 44.613281 50.199219 46.253906 44.984375 49.226562 C 43.710938 49.953125 43.203125 50.65625 43.816406 52.171875 C 45.789062 57.035156 47.449219 62.027344 49.578125 66.8125 C 51.40625 70.929688 53.675781 74.855469 55.84375 78.8125 C 56.1875 79.4375 57.03125 79.789062 57.644531 80.265625 C 58.09375 79.652344 58.671875 79.09375 58.960938 78.414062 C 60.703125 74.324219 62.296875 70.167969 64.121094 66.117188 C 64.792969 64.625 65.769531 63.152344 66.949219 62.03125 C 70.503906 58.644531 74.257812 59.683594 75.363281 64.488281 C 75.992188 67.21875 76.121094 70.125 76.039062 72.941406 C 75.914062 77.308594 75.417969 81.667969 75.058594 86.300781 Z M 36.160156 52.703125 C 37.535156 50.792969 38.78125 48.773438 40.328125 47.019531 C 41.28125 45.9375 41.464844 44.992188 41.144531 43.6875 C 39.652344 37.621094 39.199219 31.449219 39.5625 25.222656 C 39.988281 17.945312 45.113281 14.410156 52.109375 16.585938 C 53.984375 17.167969 55.839844 17.875 57.597656 18.742188 C 61.492188 20.65625 65.5625 21.476562 69.886719 21.246094 C 70.550781 21.210938 71.242188 21.648438 71.921875 21.871094 C 71.464844 22.460938 71.125 23.375 70.535156 23.578125 C 67.9375 24.484375 65.28125 25.230469 62.617188 25.933594 C 61.570312 26.207031 60.425781 26.113281 59.371094 26.371094 C 58.71875 26.535156 58.148438 27.042969 57.539062 27.394531 C 58.125 27.695312 58.722656 28.273438 59.296875 28.25 C 62.339844 28.128906 65.398438 27.984375 68.417969 27.597656 C 73.214844 26.980469 77.214844 24.6875 80.6875 21.367188 C 82.371094 19.753906 84.113281 18.191406 85.890625 16.683594 C 90.503906 12.777344 97.023438 13.40625 100.898438 18.023438 C 104.546875 22.367188 104.894531 27.460938 104.171875 32.714844 C 103.703125 36.101562 102.941406 39.453125 102.117188 42.773438 C 101.75 44.261719 101.855469 45.226562 102.992188 46.421875 C 104.800781 48.332031 106.242188 50.582031 107.835938 52.691406 C 91.390625 33.441406 51.492188 34.230469 36.160156 52.703125 " fill-opacity="1" fill-rule="nonzero"/></g><g fill="#000000" fill-opacity="1"><g transform="translate(11.484376, 111.002463)"><g><path d="M 8.5625 -16.46875 C 10.644531 -16.46875 12.382812 -15.660156 13.78125 -14.046875 C 15.1875 -12.441406 15.890625 -10.503906 15.890625 -8.234375 C 15.890625 -5.828125 15.160156 -3.867188 13.703125 -2.359375 C 12.242188 -0.847656 10.328125 -0.0625 7.953125 0 L 0.90625 0 L 0.75 -0.796875 L 2.875 -1.578125 L 2.875 -14.96875 L 1.09375 -15.0625 L 1.125 -16.265625 C 3.757812 -16.398438 6.238281 -16.46875 8.5625 -16.46875 Z M 7.53125 -1.65625 C 9.269531 -1.65625 10.664062 -2.265625 11.71875 -3.484375 C 12.769531 -4.710938 13.296875 -6.296875 13.296875 -8.234375 C 13.296875 -9.722656 12.960938 -11.09375 12.296875 -12.34375 C 11.640625 -13.59375 10.8125 -14.476562 9.8125 -15 L 5.203125 -14.625 L 5.203125 -1.984375 C 6.023438 -1.765625 6.800781 -1.65625 7.53125 -1.65625 Z M 7.53125 -1.65625 "/></g></g></g><g fill="#000000" fill-opacity="1"><g transform="translate(27.872131, 111.002463)"><g><path d="M 2.859375 -6.5625 C 2.859375 -4.90625 3.234375 -3.648438 3.984375 -2.796875 C 4.742188 -1.953125 5.734375 -1.53125 6.953125 -1.53125 C 7.859375 -1.53125 8.925781 -1.804688 10.15625 -2.359375 L 10.53125 -1.28125 L 6.640625 0.375 C 4.796875 0.375 3.3125 -0.1875 2.1875 -1.3125 C 1.0625 -2.4375 0.5 -3.882812 0.5 -5.65625 C 0.5 -7.457031 1.050781 -9 2.15625 -10.28125 C 3.269531 -11.570312 4.628906 -12.21875 6.234375 -12.21875 C 7.097656 -12.21875 7.875 -12.023438 8.5625 -11.640625 C 9.257812 -11.253906 9.796875 -10.726562 10.171875 -10.0625 C 10.546875 -9.394531 10.726562 -8.648438 10.71875 -7.828125 L 9.28125 -6.4375 Z M 4.984375 -10.6875 C 4.023438 -10.1875 3.378906 -9.253906 3.046875 -7.890625 L 8.53125 -8.140625 C 8.363281 -8.941406 7.953125 -9.582031 7.296875 -10.0625 C 6.640625 -10.539062 5.867188 -10.75 4.984375 -10.6875 Z M 4.984375 -10.6875 "/></g></g></g><g fill="#000000" fill-opacity="1"><g transform="translate(39.155913, 111.002463)"><g><path d="M 12.515625 -1.609375 C 13.367188 -1.484375 13.953125 -1.347656 14.265625 -1.203125 L 14.125 0 L 8.984375 0 L 8.859375 -0.828125 L 10.28125 -1.375 L 10.28125 -7.40625 C 10.28125 -9.207031 9.75 -10.109375 8.6875 -10.109375 C 7.71875 -10.109375 6.414062 -9.484375 4.78125 -8.234375 L 4.78125 -1.578125 C 5.476562 -1.492188 6.019531 -1.367188 6.40625 -1.203125 L 6.265625 0 L 0.90625 0 L 0.78125 -0.828125 L 2.546875 -1.484375 L 2.546875 -10.3125 L 0.671875 -10.15625 L 0.375 -11.34375 C 1.488281 -11.820312 2.625 -12.078125 3.78125 -12.109375 L 4.78125 -11.234375 L 4.78125 -9.59375 C 7.28125 -11.269531 8.984375 -12.109375 9.890625 -12.109375 C 10.367188 -12.023438 10.851562 -11.78125 11.34375 -11.375 C 11.84375 -10.96875 12.160156 -10.546875 12.296875 -10.109375 C 12.441406 -9.679688 12.515625 -8.875 12.515625 -7.6875 Z M 12.515625 -1.609375 "/></g></g></g><g fill="#000000" fill-opacity="1"><g transform="translate(53.917394, 111.002463)"><g><path d="M 5.28125 -1.703125 C 5.757812 -1.703125 6.523438 -1.894531 7.578125 -2.28125 L 8.015625 -1.125 L 4.75 0.375 C 4.1875 0.40625 3.625 0.191406 3.0625 -0.265625 C 2.507812 -0.722656 2.234375 -1.21875 2.234375 -1.75 L 2.234375 -9.84375 L 0.671875 -9.8125 L 0.5 -11.015625 C 1.03125 -11.242188 1.625 -11.4375 2.28125 -11.59375 L 3.28125 -14.75 L 4.453125 -14.75 L 4.453125 -11.71875 L 7.953125 -11.71875 L 8.0625 -10.984375 L 6.890625 -9.78125 L 4.453125 -9.78125 L 4.453125 -3.046875 C 4.453125 -2.535156 4.507812 -2.179688 4.625 -1.984375 C 4.75 -1.796875 4.96875 -1.703125 5.28125 -1.703125 Z M 5.28125 -1.703125 "/></g></g></g><g fill="#000000" fill-opacity="1"><g transform="translate(62.499067, 111.002463)"><g/></g></g><g fill="#000000" fill-opacity="1"><g transform="translate(69.129224, 111.002463)"><g><path d="M 3.78125 -14.34375 C 2.957031 -14.695312 2.316406 -15.195312 1.859375 -15.84375 C 2.285156 -16.75 2.789062 -17.382812 3.375 -17.75 C 4.125 -17.445312 4.75 -16.945312 5.25 -16.25 C 4.988281 -15.476562 4.5 -14.84375 3.78125 -14.34375 Z M 4.78125 -1.609375 C 5.613281 -1.503906 6.210938 -1.367188 6.578125 -1.203125 L 6.4375 0 L 0.78125 0 L 0.65625 -0.828125 C 1.050781 -1.023438 1.679688 -1.257812 2.546875 -1.53125 L 2.546875 -10.3125 L 0.671875 -10.15625 L 0.375 -11.34375 C 1.488281 -11.820312 2.625 -12.078125 3.78125 -12.109375 L 4.78125 -11.234375 Z M 4.78125 -1.609375 "/></g></g></g><g fill="#000000" fill-opacity="1"><g transform="translate(76.209729, 111.002463)"><g/></g></g><g fill="#000000" fill-opacity="1"><g transform="translate(82.839886, 111.002463)"><g><path d="M 8.5625 -16.46875 C 10.644531 -16.46875 12.382812 -15.660156 13.78125 -14.046875 C 15.1875 -12.441406 15.890625 -10.503906 15.890625 -8.234375 C 15.890625 -5.828125 15.160156 -3.867188 13.703125 -2.359375 C 12.242188 -0.847656 10.328125 -0.0625 7.953125 0 L 0.90625 0 L 0.75 -0.796875 L 2.875 -1.578125 L 2.875 -14.96875 L 1.09375 -15.0625 L 1.125 -16.265625 C 3.757812 -16.398438 6.238281 -16.46875 8.5625 -16.46875 Z M 7.53125 -1.65625 C 9.269531 -1.65625 10.664062 -2.265625 11.71875 -3.484375 C 12.769531 -4.710938 13.296875 -6.296875 13.296875 -8.234375 C 13.296875 -9.722656 12.960938 -11.09375 12.296875 -12.34375 C 11.640625 -13.59375 10.8125 -14.476562 9.8125 -15 L 5.203125 -14.625 L 5.203125 -1.984375 C 6.023438 -1.765625 6.800781 -1.65625 7.53125 -1.65625 Z M 7.53125 -1.65625 "/></g></g></g><g fill="#000000" fill-opacity="1"><g transform="translate(99.227641, 111.002463)"><g><path d="M 2.859375 -6.5625 C 2.859375 -4.90625 3.234375 -3.648438 3.984375 -2.796875 C 4.742188 -1.953125 5.734375 -1.53125 6.953125 -1.53125 C 7.859375 -1.53125 8.925781 -1.804688 10.15625 -2.359375 L 10.53125 -1.28125 L 6.640625 0.375 C 4.796875 0.375 3.3125 -0.1875 2.1875 -1.3125 C 1.0625 -2.4375 0.5 -3.882812 0.5 -5.65625 C 0.5 -7.457031 1.050781 -9 2.15625 -10.28125 C 3.269531 -11.570312 4.628906 -12.21875 6.234375 -12.21875 C 7.097656 -12.21875 7.875 -12.023438 8.5625 -11.640625 C 9.257812 -11.253906 9.796875 -10.726562 10.171875 -10.0625 C 10.546875 -9.394531 10.726562 -8.648438 10.71875 -7.828125 L 9.28125 -6.4375 Z M 4.984375 -10.6875 C 4.023438 -10.1875 3.378906 -9.253906 3.046875 -7.890625 L 8.53125 -8.140625 C 8.363281 -8.941406 7.953125 -9.582031 7.296875 -10.0625 C 6.640625 -10.539062 5.867188 -10.75 4.984375 -10.6875 Z M 4.984375 -10.6875 "/></g></g></g><g fill="#000000" fill-opacity="1"><g transform="translate(110.511424, 111.002463)"><g><path d="M 4.78125 -1.609375 C 5.613281 -1.503906 6.210938 -1.367188 6.578125 -1.203125 L 6.4375 0 L 0.78125 0 L 0.65625 -0.828125 C 1.050781 -1.023438 1.679688 -1.257812 2.546875 -1.53125 L 2.546875 -16.59375 L 0.671875 -16.453125 L 0.375 -17.625 C 1.488281 -18.101562 2.625 -18.359375 3.78125 -18.390625 L 4.78125 -17.515625 Z M 4.78125 -1.609375 "/></g></g></g><g fill="#000000" fill-opacity="1"><g transform="translate(117.967226, 111.002463)"><g><path d="M 3.78125 -14.34375 C 2.957031 -14.695312 2.316406 -15.195312 1.859375 -15.84375 C 2.285156 -16.75 2.789062 -17.382812 3.375 -17.75 C 4.125 -17.445312 4.75 -16.945312 5.25 -16.25 C 4.988281 -15.476562 4.5 -14.84375 3.78125 -14.34375 Z M 4.78125 -1.609375 C 5.613281 -1.503906 6.210938 -1.367188 6.578125 -1.203125 L 6.4375 0 L 0.78125 0 L 0.65625 -0.828125 C 1.050781 -1.023438 1.679688 -1.257812 2.546875 -1.53125 L 2.546875 -10.3125 L 0.671875 -10.15625 L 0.375 -11.34375 C 1.488281 -11.820312 2.625 -12.078125 3.78125 -12.109375 L 4.78125 -11.234375 Z M 4.78125 -1.609375 "/></g></g></g><g fill="#000000" fill-opacity="1"><g transform="translate(125.047731, 111.002463)"><g><path d="M 4.78125 -1.609375 C 5.613281 -1.503906 6.210938 -1.367188 6.578125 -1.203125 L 6.4375 0 L 0.78125 0 L 0.65625 -0.828125 C 1.050781 -1.023438 1.679688 -1.257812 2.546875 -1.53125 L 2.546875 -16.59375 L 0.671875 -16.453125 L 0.375 -17.625 C 1.488281 -18.101562 2.625 -18.359375 3.78125 -18.390625 L 4.78125 -17.515625 Z M 4.78125 -1.609375 "/></g></g></g></svg>