<svg xmlns="http://www.w3.org/2000/svg" xmlns:xlink="http://www.w3.org/1999/xlink" width="512" zoomAndPan="magnify" viewBox="0 0 384 383.999986" height="512" preserveAspectRatio="xMidYMid meet" version="1.0"><defs><g/><clipPath id="8a34a90610"><path d="M 96.40625 35 L 287.65625 35 L 287.65625 239.996094 L 96.40625 239.996094 Z M 96.40625 35 " clip-rule="nonzero"/></clipPath></defs><rect x="-38.4" width="460.8" fill="#ffffff" y="-38.399999" height="460.799983" fill-opacity="1"/><rect x="-38.4" width="460.8" fill="#ffffff" y="-38.399999" height="460.799983" fill-opacity="1"/><g clip-path="url(#8a34a90610)"><path fill="#a48023" d="M 200.171875 227.550781 C 200.433594 229.949219 200.589844 233.0625 201.152344 236.097656 C 201.832031 239.773438 203.953125 240.097656 206.425781 237.636719 C 208.761719 235.308594 210.941406 232.800781 213.007812 230.226562 C 233.703125 204.472656 247.542969 174.824219 260.445312 144.804688 C 267.601562 128.148438 270.320312 130.710938 251.296875 122.871094 C 223.417969 111.382812 194.199219 110.214844 164.648438 114.242188 C 148.921875 116.382812 133.882812 120.757812 119.976562 128.6875 C 116.578125 130.625 115.21875 132.5 116.859375 136.546875 C 122.113281 149.507812 126.542969 162.820312 132.21875 175.589844 C 137.097656 186.5625 143.144531 197.027344 148.929688 207.582031 C 149.84375 209.25 152.097656 210.183594 153.734375 211.460938 C 154.921875 209.820312 156.472656 208.339844 157.246094 206.523438 C 161.890625 195.617188 166.132812 184.535156 171 173.730469 C 172.792969 169.753906 175.398438 165.828125 178.539062 162.832031 C 188.019531 153.796875 198.027344 156.574219 200.980469 169.382812 C 202.660156 176.664062 202.996094 184.417969 202.78125 191.925781 C 202.449219 203.574219 201.128906 215.195312 200.171875 227.550781 Z M 96.4375 137.957031 C 100.101562 132.867188 103.429688 127.480469 107.554688 122.796875 C 110.09375 119.921875 110.585938 117.398438 109.730469 113.917969 C 105.753906 97.738281 104.546875 81.28125 105.515625 64.675781 C 106.648438 45.277344 120.316406 35.847656 138.964844 41.644531 C 143.964844 43.199219 148.917969 45.085938 153.609375 47.394531 C 163.996094 52.503906 174.84375 54.691406 186.378906 54.074219 C 188.152344 53.976562 189.992188 55.152344 191.800781 55.738281 C 190.585938 57.308594 189.671875 59.75 188.101562 60.292969 C 181.175781 62.707031 174.089844 64.703125 166.992188 66.570312 C 164.199219 67.304688 161.148438 67.054688 158.335938 67.746094 C 156.589844 68.175781 155.070312 69.527344 153.449219 70.464844 C 155.011719 71.269531 156.605469 72.816406 158.132812 72.753906 C 166.253906 72.421875 174.402344 72.042969 182.457031 71.011719 C 195.246094 69.371094 205.921875 63.25 215.175781 54.398438 C 219.667969 50.097656 224.308594 45.933594 229.054688 41.910156 C 241.351562 31.496094 258.742188 33.167969 269.078125 45.480469 C 278.800781 57.0625 279.730469 70.644531 277.800781 84.65625 C 276.554688 93.683594 274.519531 102.628906 272.328125 111.484375 C 271.34375 115.449219 271.628906 118.015625 274.660156 121.214844 C 279.480469 126.296875 283.320312 132.308594 287.578125 137.925781 C 243.71875 86.589844 137.324219 88.695312 96.4375 137.957031 " fill-opacity="1" fill-rule="nonzero"/></g><g fill="#000000" fill-opacity="1"><g transform="translate(30.625007, 293.424063)"><g><path d="M 22.828125 -43.90625 C 28.390625 -43.90625 33.035156 -41.757812 36.765625 -37.46875 C 40.503906 -33.175781 42.375 -28.003906 42.375 -21.953125 C 42.375 -15.546875 40.425781 -10.328125 36.53125 -6.296875 C 32.644531 -2.273438 27.539062 -0.175781 21.21875 0 L 2.40625 0 L 2 -2.140625 L 7.671875 -4.203125 L 7.671875 -39.90625 L 2.9375 -40.171875 L 3 -43.375 C 10.03125 -43.726562 16.640625 -43.90625 22.828125 -43.90625 Z M 20.09375 -4.40625 C 24.71875 -4.40625 28.429688 -6.039062 31.234375 -9.3125 C 34.035156 -12.582031 35.4375 -16.796875 35.4375 -21.953125 C 35.4375 -25.910156 34.554688 -29.554688 32.796875 -32.890625 C 31.035156 -36.234375 28.820312 -38.59375 26.15625 -39.96875 L 13.875 -38.96875 L 13.875 -5.265625 C 16.0625 -4.691406 18.132812 -4.40625 20.09375 -4.40625 Z M 20.09375 -4.40625 "/></g></g></g><g fill="#000000" fill-opacity="1"><g transform="translate(74.325691, 293.424063)"><g><path d="M 7.609375 -17.484375 C 7.609375 -13.078125 8.617188 -9.738281 10.640625 -7.46875 C 12.671875 -5.207031 15.304688 -4.078125 18.546875 -4.078125 C 20.953125 -4.078125 23.800781 -4.804688 27.09375 -6.265625 L 28.09375 -3.40625 L 17.6875 1 C 12.789062 1 8.835938 -0.5 5.828125 -3.5 C 2.828125 -6.507812 1.328125 -10.367188 1.328125 -15.078125 C 1.328125 -19.890625 2.804688 -24.003906 5.765625 -27.421875 C 8.722656 -30.847656 12.335938 -32.5625 16.609375 -32.5625 C 18.929688 -32.5625 21.015625 -32.050781 22.859375 -31.03125 C 24.703125 -30.007812 26.125 -28.609375 27.125 -26.828125 C 28.125 -25.046875 28.601562 -23.066406 28.5625 -20.890625 L 24.765625 -17.15625 Z M 13.28125 -28.5 C 10.738281 -27.164062 9.023438 -24.671875 8.140625 -21.015625 L 22.75 -21.6875 C 22.3125 -23.820312 21.210938 -25.535156 19.453125 -26.828125 C 17.691406 -28.117188 15.632812 -28.675781 13.28125 -28.5 Z M 13.28125 -28.5 "/></g></g></g><g fill="#000000" fill-opacity="1"><g transform="translate(104.415779, 293.424063)"><g><path d="M 33.359375 -4.265625 C 35.628906 -3.953125 37.1875 -3.597656 38.03125 -3.203125 L 37.640625 0 L 23.953125 0 L 23.625 -2.203125 L 27.421875 -3.671875 L 27.421875 -19.75 C 27.421875 -24.550781 26 -26.953125 23.15625 -26.953125 C 20.570312 -26.953125 17.101562 -25.285156 12.75 -21.953125 L 12.75 -4.203125 C 14.613281 -3.984375 16.054688 -3.648438 17.078125 -3.203125 L 16.6875 0 L 2.40625 0 L 2.0625 -2.203125 L 6.8125 -3.9375 L 6.8125 -27.5 L 1.796875 -27.09375 L 1 -30.234375 C 3.976562 -31.523438 7.003906 -32.210938 10.078125 -32.296875 L 12.75 -29.96875 L 12.75 -25.5625 C 19.414062 -30.050781 23.953125 -32.296875 26.359375 -32.296875 C 27.648438 -32.078125 28.953125 -31.421875 30.265625 -30.328125 C 31.578125 -29.242188 32.421875 -28.117188 32.796875 -26.953125 C 33.171875 -25.796875 33.359375 -23.640625 33.359375 -20.484375 Z M 33.359375 -4.265625 "/></g></g></g><g fill="#000000" fill-opacity="1"><g transform="translate(143.779731, 293.424063)"><g><path d="M 14.078125 -4.53125 C 15.367188 -4.53125 17.414062 -5.046875 20.21875 -6.078125 L 21.359375 -3 L 12.671875 1 C 11.160156 1.09375 9.660156 0.53125 8.171875 -0.6875 C 6.679688 -1.914062 5.9375 -3.242188 5.9375 -4.671875 L 5.9375 -26.234375 L 1.796875 -26.15625 L 1.328125 -29.359375 C 2.753906 -29.984375 4.335938 -30.492188 6.078125 -30.890625 L 8.75 -39.3125 L 11.875 -39.3125 L 11.875 -31.234375 L 21.21875 -31.234375 L 21.484375 -29.296875 L 18.359375 -26.09375 L 11.875 -26.09375 L 11.875 -8.140625 C 11.875 -6.765625 12.03125 -5.816406 12.34375 -5.296875 C 12.65625 -4.785156 13.234375 -4.53125 14.078125 -4.53125 Z M 14.078125 -4.53125 "/></g></g></g><g fill="#000000" fill-opacity="1"><g transform="translate(166.664192, 293.424063)"><g/></g></g><g fill="#000000" fill-opacity="1"><g transform="translate(184.344612, 293.424063)"><g><path d="M 10.078125 -38.234375 C 7.898438 -39.171875 6.1875 -40.507812 4.9375 -42.25 C 6.09375 -44.644531 7.453125 -46.332031 9.015625 -47.3125 C 11.015625 -46.507812 12.679688 -45.175781 14.015625 -43.3125 C 13.304688 -41.257812 11.992188 -39.566406 10.078125 -38.234375 Z M 12.75 -4.265625 C 14.96875 -4.003906 16.566406 -3.648438 17.546875 -3.203125 L 17.15625 0 L 2.0625 0 L 1.734375 -2.203125 C 2.804688 -2.734375 4.5 -3.359375 6.8125 -4.078125 L 6.8125 -27.5 L 1.796875 -27.09375 L 1 -30.234375 C 3.976562 -31.523438 7.003906 -32.210938 10.078125 -32.296875 L 12.75 -29.96875 Z M 12.75 -4.265625 "/></g></g></g><g fill="#000000" fill-opacity="1"><g transform="translate(203.225959, 293.424063)"><g/></g></g><g fill="#000000" fill-opacity="1"><g transform="translate(220.906379, 293.424063)"><g><path d="M 22.828125 -43.90625 C 28.390625 -43.90625 33.035156 -41.757812 36.765625 -37.46875 C 40.503906 -33.175781 42.375 -28.003906 42.375 -21.953125 C 42.375 -15.546875 40.425781 -10.328125 36.53125 -6.296875 C 32.644531 -2.273438 27.539062 -0.175781 21.21875 0 L 2.40625 0 L 2 -2.140625 L 7.671875 -4.203125 L 7.671875 -39.90625 L 2.9375 -40.171875 L 3 -43.375 C 10.03125 -43.726562 16.640625 -43.90625 22.828125 -43.90625 Z M 20.09375 -4.40625 C 24.71875 -4.40625 28.429688 -6.039062 31.234375 -9.3125 C 34.035156 -12.582031 35.4375 -16.796875 35.4375 -21.953125 C 35.4375 -25.910156 34.554688 -29.554688 32.796875 -32.890625 C 31.035156 -36.234375 28.820312 -38.59375 26.15625 -39.96875 L 13.875 -38.96875 L 13.875 -5.265625 C 16.0625 -4.691406 18.132812 -4.40625 20.09375 -4.40625 Z M 20.09375 -4.40625 "/></g></g></g><g fill="#000000" fill-opacity="1"><g transform="translate(264.607063, 293.424063)"><g><path d="M 7.609375 -17.484375 C 7.609375 -13.078125 8.617188 -9.738281 10.640625 -7.46875 C 12.671875 -5.207031 15.304688 -4.078125 18.546875 -4.078125 C 20.953125 -4.078125 23.800781 -4.804688 27.09375 -6.265625 L 28.09375 -3.40625 L 17.6875 1 C 12.789062 1 8.835938 -0.5 5.828125 -3.5 C 2.828125 -6.507812 1.328125 -10.367188 1.328125 -15.078125 C 1.328125 -19.890625 2.804688 -24.003906 5.765625 -27.421875 C 8.722656 -30.847656 12.335938 -32.5625 16.609375 -32.5625 C 18.929688 -32.5625 21.015625 -32.050781 22.859375 -31.03125 C 24.703125 -30.007812 26.125 -28.609375 27.125 -26.828125 C 28.125 -25.046875 28.601562 -23.066406 28.5625 -20.890625 L 24.765625 -17.15625 Z M 13.28125 -28.5 C 10.738281 -27.164062 9.023438 -24.671875 8.140625 -21.015625 L 22.75 -21.6875 C 22.3125 -23.820312 21.210938 -25.535156 19.453125 -26.828125 C 17.691406 -28.117188 15.632812 -28.675781 13.28125 -28.5 Z M 13.28125 -28.5 "/></g></g></g><g fill="#000000" fill-opacity="1"><g transform="translate(294.697151, 293.424063)"><g><path d="M 12.75 -4.265625 C 14.96875 -4.003906 16.566406 -3.648438 17.546875 -3.203125 L 17.15625 0 L 2.0625 0 L 1.734375 -2.203125 C 2.804688 -2.734375 4.5 -3.359375 6.8125 -4.078125 L 6.8125 -44.25 L 1.796875 -43.84375 L 1 -46.984375 C 3.976562 -48.273438 7.003906 -48.960938 10.078125 -49.046875 L 12.75 -46.71875 Z M 12.75 -4.265625 "/></g></g></g><g fill="#000000" fill-opacity="1"><g transform="translate(314.579292, 293.424063)"><g><path d="M 10.078125 -38.234375 C 7.898438 -39.171875 6.1875 -40.507812 4.9375 -42.25 C 6.09375 -44.644531 7.453125 -46.332031 9.015625 -47.3125 C 11.015625 -46.507812 12.679688 -45.175781 14.015625 -43.3125 C 13.304688 -41.257812 11.992188 -39.566406 10.078125 -38.234375 Z M 12.75 -4.265625 C 14.96875 -4.003906 16.566406 -3.648438 17.546875 -3.203125 L 17.15625 0 L 2.0625 0 L 1.734375 -2.203125 C 2.804688 -2.734375 4.5 -3.359375 6.8125 -4.078125 L 6.8125 -27.5 L 1.796875 -27.09375 L 1 -30.234375 C 3.976562 -31.523438 7.003906 -32.210938 10.078125 -32.296875 L 12.75 -29.96875 Z M 12.75 -4.265625 "/></g></g></g><g fill="#000000" fill-opacity="1"><g transform="translate(333.46064, 293.424063)"><g><path d="M 12.75 -4.265625 C 14.96875 -4.003906 16.566406 -3.648438 17.546875 -3.203125 L 17.15625 0 L 2.0625 0 L 1.734375 -2.203125 C 2.804688 -2.734375 4.5 -3.359375 6.8125 -4.078125 L 6.8125 -44.25 L 1.796875 -43.84375 L 1 -46.984375 C 3.976562 -48.273438 7.003906 -48.960938 10.078125 -49.046875 L 12.75 -46.71875 Z M 12.75 -4.265625 "/></g></g></g></svg>